<svg width="592" height="246" viewBox="0 0 592 246" fill="none" xmlns="http://www.w3.org/2000/svg">
<rect width="592" height="246" fill="#1C1816"/>
<path d="M129.16 175.487L6.92151 96.0259L1.92428e-06 106.674L122.239 186.135L129.16 175.487Z" fill="#A3BD31"/>
<path d="M122.577 186.153L244.816 106.692L237.895 96.0438L115.656 175.505L122.577 186.153Z" fill="#A3BD31"/>
<path d="M360.443 175.512L238.205 96.0513L231.283 106.699L353.522 186.16L360.443 175.512Z" fill="#A3BD31"/>
<path d="M353.895 186.123L476.134 106.662L469.212 96.0145L346.974 175.476L353.895 186.123Z" fill="#A3BD31"/>
<path d="M244.844 175.527L122.605 96.0658L115.684 106.713L237.922 186.174L244.844 175.527Z" fill="#A3BD31"/>
<path d="M238.236 186.138L360.475 106.677L353.553 96.0292L231.315 175.49L238.236 186.138Z" fill="#A3BD31"/>
<path d="M476.043 175.498L353.804 96.0366L346.883 106.684L469.122 186.145L476.043 175.498Z" fill="#A3BD31"/>
<path d="M469.554 186.109L591.793 106.648L584.871 96L462.632 175.461L469.554 186.109Z" fill="#A3BD31"/>
</svg>
