<svg width="300" height="300" viewBox="0 0 300 300" fill="none" xmlns="http://www.w3.org/2000/svg">
<g clip-path="url(#clip0)">
<path d="M300.9 0H0.900024V300H300.9V0Z" fill="#1C1816"/>
<path d="M54.2984 101.827V103.43C54.2984 104.375 54.5301 105.114 54.9934 105.649C55.4746 106.166 56.3388 106.424 57.5863 106.424H60.3127V116.341H34.1437V106.424C35.7119 106.424 36.8346 106.219 37.5118 105.809C38.1889 105.382 38.5275 104.589 38.5275 103.43V89.9048C38.5275 88.7286 38.1889 87.9356 37.5118 87.5258C36.8346 87.0981 35.7119 86.8842 34.1437 86.8842V76.9673H62.9858C65.6232 76.9673 67.8329 77.2791 69.6149 77.9028C71.3969 78.5266 72.8225 79.3997 73.8918 80.5224C74.9788 81.6273 75.7451 82.9727 76.1906 84.5587C76.6539 86.1447 76.8856 87.8911 76.8856 89.7979C76.8856 91.7224 76.6539 93.4243 76.1906 94.9033C75.7451 96.3824 74.9788 97.6477 73.8918 98.6991C72.8225 99.7326 71.3969 100.517 69.6149 101.051C67.8329 101.568 65.6232 101.827 62.9858 101.827H54.2984ZM54.2984 95.4914H57.1853C58.6822 95.4914 59.7158 95.0994 60.286 94.3153C60.8563 93.5312 61.1414 92.4976 61.1414 91.2146C61.1414 90.0028 60.8563 88.9781 60.286 88.1406C59.7158 87.303 58.6822 86.8842 57.1853 86.8842H54.2984V95.4914Z" fill="white"/>
<path d="M92.309 90.5998C91.4001 90.5998 90.616 90.671 89.9567 90.8136C89.3152 90.9383 88.7627 91.0898 88.2994 91.268C87.8361 91.4462 87.4529 91.6512 87.15 91.8828C86.8471 92.0967 86.5798 92.2927 86.3481 92.4709L86.6154 92.7382C86.954 92.56 87.3193 92.3818 87.7113 92.2036C88.1212 92.0254 88.638 91.9363 89.2617 91.9363C90.3131 91.9363 91.2219 92.2838 91.9882 92.9788C92.7545 93.6559 93.1376 94.743 93.1376 96.2399C93.1376 97.6655 92.5495 98.8149 91.3734 99.6881C90.2151 100.543 88.6558 100.971 86.6956 100.971C84.8245 100.971 83.3276 100.437 82.2049 99.3673C81.1 98.2803 80.5476 96.7477 80.5476 94.7697C80.5476 93.6827 80.8506 92.6045 81.4564 91.5353C82.0623 90.4483 82.9979 89.4771 84.2631 88.6217C85.5462 87.7663 87.1678 87.0624 89.1281 86.51C91.1061 85.9576 93.4851 85.6814 96.2651 85.6814C99.5796 85.6814 102.288 85.9932 104.391 86.6169C106.494 87.2406 108.124 88.0426 109.283 89.0227C110.459 90.0028 111.261 91.1165 111.688 92.364C112.134 93.6114 112.357 94.8677 112.357 96.1329V106.585C112.357 108.206 112.41 109.311 112.517 109.899C112.624 110.469 113.025 110.754 113.72 110.754C114.272 110.754 114.656 110.496 114.869 109.979C115.101 109.445 115.217 108.536 115.217 107.253V103.911H118.264V107.306C118.264 108.91 118.13 110.336 117.863 111.583C117.596 112.813 117.088 113.873 116.34 114.764C115.591 115.637 114.575 116.297 113.292 116.742C112.009 117.205 110.37 117.437 108.374 117.437C106.574 117.437 105.077 117.241 103.883 116.849C102.707 116.475 101.771 116.003 101.077 115.432C100.382 114.862 99.8826 114.274 99.5796 113.668C99.2945 113.044 99.1519 112.492 99.1519 112.011H98.7242C98.6173 112.741 98.3055 113.436 97.7887 114.096C97.2897 114.755 96.5858 115.343 95.677 115.86C94.786 116.359 93.7079 116.76 92.4426 117.063C91.1952 117.384 89.7696 117.544 88.1658 117.544C86.6332 117.544 85.2343 117.392 83.9691 117.09C82.7217 116.804 81.6525 116.35 80.7615 115.726C79.8883 115.085 79.2022 114.265 78.7032 113.267C78.2221 112.251 77.9815 111.048 77.9815 109.659C77.9815 107.948 78.4627 106.602 79.4249 105.622C80.3872 104.624 81.599 103.84 83.0603 103.27C84.5215 102.682 86.1075 102.21 87.8183 101.853C89.5468 101.479 91.1417 101.034 92.603 100.517C94.0643 99.9999 95.276 99.3317 96.2383 98.5119C97.2006 97.6922 97.6818 96.5339 97.6818 95.037C97.6818 93.7005 97.263 92.6313 96.4254 91.8294C95.5879 91.0096 94.2157 90.5998 92.309 90.5998ZM97.6818 102.174C97.2897 102.744 96.7997 103.208 96.2116 103.564C95.6235 103.903 95.0533 104.241 94.5009 104.58C93.9662 104.9 93.494 105.293 93.0841 105.756C92.6921 106.201 92.4961 106.807 92.4961 107.574C92.4961 108.162 92.6565 108.696 92.9772 109.177C93.298 109.641 93.9217 109.872 94.8483 109.872C95.6859 109.872 96.3631 109.552 96.8799 108.91C97.4145 108.251 97.6818 107.333 97.6818 106.157V102.174Z" fill="white"/>
<path d="M158.787 103.805C158.787 104.749 158.948 105.426 159.268 105.836C159.607 106.228 160.249 106.424 161.193 106.424H162.075V116.341H144.112V99.2604C144.112 98.5654 144.041 98.013 143.899 97.6031C143.756 97.1754 143.56 96.8547 143.31 96.6408C143.079 96.4092 142.803 96.2577 142.482 96.1864C142.179 96.1151 141.885 96.0795 141.6 96.0795C140.424 96.0795 139.613 96.4181 139.167 97.0952C138.74 97.7724 138.526 98.7347 138.526 99.9821V103.805C138.526 104.749 138.686 105.426 139.007 105.836C139.345 106.228 139.987 106.424 140.931 106.424H141.814V116.341H120.028V106.424H121.605C122.336 106.424 122.888 106.192 123.263 105.729C123.655 105.248 123.851 104.678 123.851 104.018V98.9396C123.851 98.1021 123.601 97.5407 123.102 97.2556C122.621 96.9527 122.069 96.8012 121.445 96.8012H120.028V86.8842H135.906L135.345 94.2351H135.799C136.191 91.4908 137.296 89.3791 139.114 87.9C140.949 86.4209 143.604 85.6814 147.079 85.6814C148.38 85.6814 149.592 85.8596 150.715 86.216C151.855 86.5546 152.862 87.0803 153.735 87.7931C154.626 88.5059 155.321 89.4058 155.82 90.4928C156.337 91.5621 156.631 92.8095 156.702 94.2351H157.077C157.237 92.8808 157.629 91.669 158.253 90.5998C158.894 89.5127 159.696 88.6128 160.658 87.9C161.639 87.1872 162.708 86.6437 163.866 86.2694C165.042 85.8774 166.272 85.6814 167.555 85.6814C169.925 85.6814 171.858 86.0289 173.355 86.7239C174.852 87.4189 176.02 88.301 176.857 89.3702C177.695 90.4216 178.265 91.571 178.568 92.8184C178.889 94.048 179.049 95.2063 179.049 96.2933V103.805C179.049 104.749 179.209 105.426 179.53 105.836C179.869 106.228 180.51 106.424 181.455 106.424H182.871V116.341H164.374V99.2604C164.374 98.5654 164.294 98.013 164.133 97.6031C163.991 97.1754 163.804 96.8547 163.572 96.6408C163.34 96.4092 163.064 96.2577 162.743 96.1864C162.44 96.1151 162.146 96.0795 161.861 96.0795C160.685 96.0795 159.874 96.4181 159.429 97.0952C159.001 97.7724 158.787 98.7347 158.787 99.9821V103.805Z" fill="white"/>
<path d="M212.836 117.223C211.696 117.223 210.68 117.161 209.789 117.036C208.898 116.929 208.087 116.769 207.356 116.555C206.626 116.341 205.931 116.092 205.271 115.806C204.612 115.504 203.953 115.192 203.293 114.871V117.49C203.293 118.435 203.454 119.103 203.774 119.495C204.113 119.905 204.764 120.11 205.726 120.11H207.303V130.027H184.796V120.11H186.4C187.13 120.11 187.683 119.869 188.057 119.388C188.449 118.925 188.645 118.364 188.645 117.704V98.9396C188.645 98.1021 188.396 97.5407 187.897 97.2556C187.398 96.9527 186.836 96.8012 186.213 96.8012H184.796V86.8842H202.144V92.364H202.598C203.258 90.5107 204.425 88.9781 206.1 87.7663C207.775 86.5546 210.074 85.9487 212.996 85.9487C217.184 85.9487 220.454 87.2763 222.806 89.9315C225.177 92.5689 226.362 96.4448 226.362 101.559C226.362 106.674 225.15 110.567 222.726 113.24C220.321 115.896 217.024 117.223 212.836 117.223ZM211.125 101.827C211.125 100.882 211.072 99.9821 210.965 99.1267C210.858 98.2714 210.653 97.5229 210.35 96.8814C210.065 96.2399 209.673 95.7409 209.174 95.3845C208.693 95.0103 208.051 94.8232 207.249 94.8232C206.448 94.8232 205.788 95.0014 205.271 95.3578C204.755 95.6964 204.354 96.1686 204.069 96.7745C203.783 97.3804 203.578 98.1021 203.454 98.9396C203.347 99.7772 203.293 100.668 203.293 101.613V108.188C203.596 108.652 204.158 109.026 204.977 109.311C205.797 109.578 206.554 109.712 207.249 109.712C208.051 109.712 208.693 109.489 209.174 109.044C209.673 108.58 210.065 107.974 210.35 107.226C210.653 106.478 210.858 105.631 210.965 104.687C211.072 103.742 211.125 102.789 211.125 101.827Z" fill="white"/>
<path d="M242.854 90.5998C241.945 90.5998 241.161 90.671 240.502 90.8136C239.86 90.9383 239.308 91.0898 238.845 91.268C238.381 91.4462 237.998 91.6512 237.695 91.8828C237.392 92.0967 237.125 92.2927 236.893 92.4709L237.161 92.7382C237.499 92.56 237.865 92.3818 238.257 92.2036C238.667 92.0254 239.183 91.9363 239.807 91.9363C240.858 91.9363 241.767 92.2838 242.533 92.9788C243.3 93.6559 243.683 94.743 243.683 96.2399C243.683 97.6655 243.095 98.8149 241.919 99.6881C240.76 100.543 239.201 100.971 237.241 100.971C235.37 100.971 233.873 100.437 232.75 99.3673C231.645 98.2803 231.093 96.7477 231.093 94.7697C231.093 93.6827 231.396 92.6045 232.002 91.5353C232.608 90.4483 233.543 89.4771 234.808 88.6217C236.091 87.7663 237.713 87.0624 239.673 86.51C241.651 85.9576 244.03 85.6814 246.81 85.6814C250.125 85.6814 252.834 85.9932 254.936 86.6169C257.039 87.2406 258.67 88.0426 259.828 89.0227C261.004 90.0028 261.806 91.1165 262.234 92.364C262.679 93.6114 262.902 94.8677 262.902 96.1329V106.585C262.902 108.206 262.955 109.311 263.062 109.899C263.169 110.469 263.57 110.754 264.265 110.754C264.818 110.754 265.201 110.496 265.415 109.979C265.646 109.445 265.762 108.536 265.762 107.253V103.911H268.809V107.306C268.809 108.91 268.676 110.336 268.408 111.583C268.141 112.813 267.633 113.873 266.885 114.764C266.136 115.637 265.121 116.297 263.838 116.742C262.555 117.205 260.915 117.437 258.919 117.437C257.119 117.437 255.622 117.241 254.428 116.849C253.252 116.475 252.317 116.003 251.622 115.432C250.927 114.862 250.428 114.274 250.125 113.668C249.84 113.044 249.697 112.492 249.697 112.011H249.27C249.163 112.741 248.851 113.436 248.334 114.096C247.835 114.755 247.131 115.343 246.222 115.86C245.331 116.359 244.253 116.76 242.988 117.063C241.74 117.384 240.315 117.544 238.711 117.544C237.179 117.544 235.78 117.392 234.514 117.09C233.267 116.804 232.198 116.35 231.307 115.726C230.434 115.085 229.747 114.265 229.249 113.267C228.767 112.251 228.527 111.048 228.527 109.659C228.527 107.948 229.008 106.602 229.97 105.622C230.933 104.624 232.144 103.84 233.606 103.27C235.067 102.682 236.653 102.21 238.364 101.853C240.092 101.479 241.687 101.034 243.148 100.517C244.61 99.9999 245.821 99.3317 246.784 98.5119C247.746 97.6922 248.227 96.5339 248.227 95.037C248.227 93.7005 247.808 92.6313 246.971 91.8294C246.133 91.0096 244.761 90.5998 242.854 90.5998ZM248.227 102.174C247.835 102.744 247.345 103.208 246.757 103.564C246.169 103.903 245.599 104.241 245.046 104.58C244.512 104.9 244.039 105.293 243.629 105.756C243.237 106.201 243.041 106.807 243.041 107.574C243.041 108.162 243.202 108.696 243.523 109.177C243.843 109.641 244.467 109.872 245.394 109.872C246.231 109.872 246.908 109.552 247.425 108.91C247.96 108.251 248.227 107.333 248.227 106.157V102.174Z" fill="white"/>
<path d="M141.897 122.301V135.933C141.897 136.299 141.995 136.575 142.191 136.762C142.396 136.94 142.681 137.029 143.046 137.029H143.808V141.988H134.827V139.555H134.613C134.47 139.938 134.261 140.304 133.985 140.651C133.708 140.999 133.37 141.306 132.969 141.573C132.568 141.832 132.091 142.037 131.539 142.188C130.995 142.349 130.376 142.429 129.681 142.429C127.498 142.429 125.845 141.77 124.722 140.451C123.6 139.123 123.038 137.181 123.038 134.624C123.038 132.066 123.64 130.169 124.843 128.93C126.046 127.692 127.698 127.072 129.801 127.072C130.363 127.072 130.866 127.117 131.311 127.206C131.757 127.295 132.162 127.411 132.528 127.553C132.893 127.687 133.241 127.843 133.57 128.021C133.9 128.19 134.23 128.355 134.559 128.516V128.035C134.559 127.553 134.475 127.215 134.305 127.019C134.145 126.814 133.829 126.711 133.356 126.711H132.648V122.301H141.897ZM130.643 134.757C130.643 135.238 130.67 135.693 130.723 136.12C130.777 136.548 130.875 136.922 131.017 137.243C131.169 137.564 131.365 137.813 131.606 137.992C131.855 138.17 132.18 138.259 132.581 138.259C132.982 138.259 133.312 138.174 133.57 138.005C133.829 137.836 134.029 137.6 134.172 137.297C134.323 136.994 134.426 136.633 134.479 136.214C134.532 135.795 134.559 135.35 134.559 134.878V131.857C134.336 131.643 134.038 131.465 133.664 131.322C133.29 131.171 132.929 131.095 132.581 131.095C132.18 131.095 131.855 131.198 131.606 131.403C131.365 131.599 131.169 131.866 131.017 132.205C130.875 132.543 130.777 132.935 130.723 133.381C130.67 133.826 130.643 134.285 130.643 134.757Z" fill="white"/>
<path d="M152.669 135.452C152.705 136.78 152.954 137.698 153.417 138.205C153.89 138.704 154.562 138.954 155.436 138.954C155.73 138.954 156.015 138.914 156.291 138.834C156.576 138.745 156.839 138.606 157.08 138.419C157.32 138.223 157.525 137.969 157.694 137.657C157.873 137.337 157.988 136.936 158.042 136.455H162.907C162.729 137.604 162.399 138.566 161.918 139.342C161.446 140.117 160.835 140.745 160.087 141.226C159.338 141.698 158.465 142.037 157.467 142.242C156.478 142.456 155.373 142.563 154.153 142.563C152.896 142.563 151.716 142.402 150.611 142.081C149.506 141.761 148.535 141.275 147.697 140.625C146.869 139.965 146.218 139.141 145.746 138.152C145.274 137.154 145.038 135.969 145.038 134.597C145.038 133.287 145.26 132.138 145.706 131.149C146.151 130.16 146.775 129.335 147.577 128.676C148.388 128.008 149.341 127.504 150.437 127.166C151.542 126.827 152.754 126.658 154.072 126.658C155.694 126.658 157.088 126.872 158.256 127.299C159.423 127.727 160.376 128.324 161.116 129.09C161.855 129.857 162.399 130.779 162.746 131.857C163.094 132.935 163.259 134.134 163.241 135.452H152.669ZM154.647 130.267C154.023 130.267 153.56 130.489 153.257 130.935C152.963 131.371 152.767 132.098 152.669 133.113H156.585C156.532 132.24 156.344 131.55 156.024 131.042C155.703 130.525 155.244 130.267 154.647 130.267Z" fill="white"/>
<path d="M174.24 122.301V135.586C174.24 136.183 174.387 136.575 174.682 136.762C174.976 136.94 175.35 137.029 175.804 137.029H176.165V141.988H164.912V137.029H165.433C165.905 137.029 166.253 136.882 166.475 136.588C166.707 136.285 166.823 135.96 166.823 135.613V128.77C166.823 128.253 166.658 127.874 166.328 127.634C166.008 127.384 165.633 127.259 165.206 127.259H164.912V122.301H174.24Z" fill="white"/>
<path d="M95.0619 187.285V177.368C96.6301 177.368 97.7528 177.163 98.4299 176.753C99.1071 176.325 99.4457 175.532 99.4457 174.374V160.849C99.4457 159.672 99.1071 158.879 98.4299 158.47C97.7528 158.042 96.6301 157.828 95.0619 157.828V147.911H123.369C125.989 147.911 128.19 148.17 129.972 148.686C131.772 149.203 133.206 149.943 134.275 150.905C135.362 151.867 136.129 153.017 136.574 154.353C137.037 155.69 137.269 157.178 137.269 158.817C137.269 161.811 136.547 164.208 135.104 166.008C133.661 167.79 131.353 168.752 128.181 168.894V169.215C129.713 169.322 130.979 169.607 131.977 170.071C132.992 170.534 133.785 171.14 134.356 171.888C134.944 172.619 135.353 173.51 135.585 174.561C135.835 175.595 135.959 176.771 135.959 178.09V179.506C135.959 179.952 136.075 180.344 136.307 180.683C136.539 181.003 136.895 181.164 137.376 181.164C137.893 181.164 138.258 181.003 138.472 180.683C138.686 180.344 138.793 179.952 138.793 179.506V172.717H141.867V179.506C141.867 180.789 141.671 181.975 141.279 183.062C140.904 184.131 140.281 185.066 139.408 185.868C138.534 186.67 137.385 187.285 135.959 187.713C134.534 188.158 132.778 188.381 130.693 188.381C128.609 188.381 126.898 188.149 125.561 187.686C124.243 187.24 123.209 186.617 122.461 185.815C121.712 185.013 121.186 184.086 120.883 183.035C120.598 181.966 120.456 180.843 120.456 179.667V177.609C120.456 176.183 120.376 175.034 120.215 174.16C120.055 173.269 119.787 172.583 119.413 172.102C119.057 171.603 118.585 171.273 117.997 171.113C117.408 170.953 116.696 170.873 115.858 170.873H115.217V174.695C115.217 175.639 115.475 176.325 115.992 176.753C116.526 177.163 117.471 177.368 118.825 177.368V187.285H95.0619ZM115.217 166.141H117.569C119.066 166.141 120.09 165.785 120.643 165.072C121.213 164.341 121.498 163.335 121.498 162.051C121.498 160.555 121.213 159.476 120.643 158.817C120.09 158.158 119.066 157.828 117.569 157.828H115.217V166.141Z" fill="white"/>
<path d="M162.716 157.828V174.481C162.716 175.675 163.01 176.459 163.599 176.833C164.187 177.19 164.935 177.368 165.844 177.368H166.566V187.285H144.059V177.368H145.101C146.046 177.368 146.741 177.074 147.186 176.486C147.649 175.88 147.881 175.23 147.881 174.535V170.766C147.881 169.732 147.551 168.975 146.892 168.494C146.251 167.995 145.502 167.745 144.647 167.745H144.059V157.828H162.716ZM147.453 151.252C147.453 149.72 148.033 148.41 149.191 147.323C150.367 146.236 152.033 145.693 154.189 145.693C156.381 145.693 158.065 146.236 159.241 147.323C160.435 148.41 161.032 149.72 161.032 151.252C161.032 152.821 160.435 154.148 159.241 155.235C158.065 156.304 156.381 156.839 154.189 156.839C152.033 156.839 150.367 156.304 149.191 155.235C148.033 154.148 147.453 152.821 147.453 151.252Z" fill="white"/>
<path d="M168.196 172.503C168.196 169.883 168.651 167.585 169.559 165.607C170.468 163.629 171.76 161.98 173.435 160.662C175.128 159.325 177.16 158.318 179.53 157.641C181.9 156.964 184.546 156.625 187.469 156.625C190.391 156.625 193.038 156.964 195.408 157.641C197.778 158.318 199.8 159.325 201.475 160.662C203.151 161.98 204.442 163.629 205.351 165.607C206.278 167.585 206.741 169.883 206.741 172.503C206.741 175.087 206.278 177.377 205.351 179.373C204.442 181.369 203.151 183.044 201.475 184.398C199.8 185.735 197.778 186.741 195.408 187.419C193.038 188.096 190.391 188.434 187.469 188.434C184.546 188.434 181.9 188.096 179.53 187.419C177.16 186.741 175.128 185.735 173.435 184.398C171.76 183.044 170.468 181.369 169.559 179.373C168.651 177.377 168.196 175.087 168.196 172.503ZM183.406 172.503C183.406 174 183.468 175.274 183.593 176.325C183.735 177.359 183.958 178.197 184.261 178.838C184.564 179.462 184.974 179.925 185.491 180.228C186.007 180.513 186.667 180.656 187.469 180.656C188.271 180.656 188.921 180.513 189.42 180.228C189.937 179.925 190.347 179.462 190.65 178.838C190.97 178.197 191.193 177.359 191.318 176.325C191.443 175.274 191.505 174 191.505 172.503C191.505 169.509 191.22 167.415 190.65 166.221C190.097 165.01 189.037 164.404 187.469 164.404C186.667 164.404 186.007 164.546 185.491 164.831C184.974 165.099 184.564 165.553 184.261 166.195C183.958 166.818 183.735 167.656 183.593 168.707C183.468 169.741 183.406 171.006 183.406 172.503Z" fill="white"/>
<path d="M91.5739 227.146L47.3483 198.397L44.8413 202.254L89.0669 231.003L91.5739 227.146Z" fill="#A3BD31"/>
<path d="M89.1556 230.985L133.381 202.236L130.874 198.38L86.6486 227.128L89.1556 230.985Z" fill="#A3BD31"/>
<path d="M175.176 227.127L130.95 198.378L128.443 202.235L172.669 230.984L175.176 227.127Z" fill="#A3BD31"/>
<path d="M172.784 230.993L217.01 202.245L214.503 198.388L170.277 227.137L172.784 230.993Z" fill="#A3BD31"/>
<path d="M133.375 227.136L89.1494 198.388L86.6424 202.244L130.868 230.993L133.375 227.136Z" fill="#A3BD31"/>
<path d="M130.991 230.975L175.216 202.227L172.709 198.37L128.484 227.119L130.991 230.975Z" fill="#A3BD31"/>
<path d="M217.019 227.145L172.793 198.396L170.286 202.253L214.512 231.002L217.019 227.145Z" fill="#A3BD31"/>
<path d="M214.619 230.984L258.845 202.235L256.338 198.379L212.112 227.127L214.619 230.984Z" fill="#A3BD31"/>
</g>
<defs>
<clipPath id="clip0">
<rect width="300" height="300" fill="white"/>
</clipPath>
</defs>
</svg>
