<svg width="78" height="78" viewBox="0 0 78 78" fill="none" xmlns="http://www.w3.org/2000/svg">
<path d="M29.2412 43.7825C29.241 43.7821 29.2407 43.7818 29.2405 43.7813C29.2323 43.7798 29.2247 43.7789 29.2412 43.7825Z" fill="#E4E4E4"/>
<path d="M76.5948 37.6345L61.6568 34.3334C60.9499 30.6347 59.3513 27.1615 56.9955 24.2057L59.4813 19.5302C59.7154 19.0898 59.6346 18.5482 59.2819 18.1954C58.9292 17.8428 58.3876 17.7615 57.9471 17.9959L53.2712 20.4816C50.317 18.1273 46.846 16.5292 43.1499 15.8217L39.8499 0.88971C39.735 0.370019 39.2744 0 38.7421 0C38.2098 0 37.7492 0.370019 37.6343 0.88971L36.116 7.7601C35.9807 8.37181 36.367 8.97746 36.9789 9.1126C37.59 9.2482 38.1961 8.86138 38.3314 8.24968L38.7418 6.39232L43.7809 29.228C42.5756 28.5872 41.2555 28.1841 39.8785 28.0403L39.8858 24.3465C39.887 23.7199 39.3801 23.211 38.7535 23.2096C38.7527 23.2096 38.7519 23.2096 38.7512 23.2096C38.1257 23.2096 37.618 23.7162 37.6168 24.3419L37.6095 28.0397C36.2278 28.1835 34.9031 28.5881 33.6944 29.2322L37.3439 12.7205C37.4792 12.1088 37.0928 11.5031 36.4808 11.368C35.8687 11.2324 35.2636 11.6192 35.1283 12.2309L34.3349 15.8212C30.6374 16.529 27.1653 18.1279 24.2106 20.4836L19.5309 17.9956C19.0904 17.7615 18.5489 17.8423 18.1961 18.1951C17.8434 18.5479 17.7624 19.0893 17.9967 19.5299L20.4851 24.211C18.1315 27.1657 16.5345 30.6371 15.8282 34.3332L12.329 35.1065C11.7171 35.2418 11.3307 35.8473 11.466 36.459C11.6013 37.0707 12.2067 37.4576 12.8185 37.3221L29.2369 33.694C28.5957 34.8993 28.1924 36.2202 28.0485 37.5975L24.3547 37.6046C23.7281 37.6059 23.221 38.1147 23.2223 38.7415C23.2236 39.3673 23.7311 39.8738 24.3568 39.8738C24.3575 39.8738 24.3583 39.8738 24.359 39.8738L28.0477 39.8665C28.1913 41.2485 28.5963 42.573 29.2406 43.7818C29.249 43.7833 29.2581 43.7853 29.2412 43.783L6.39232 38.7421L8.34729 38.31C8.95915 38.1747 9.34551 37.5692 9.21037 36.9575C9.07507 36.3457 8.46897 35.9592 7.85787 36.0945L0.88971 37.6345C0.370019 37.7492 0 38.21 0 38.7421C0 39.2742 0.370019 39.735 0.88971 39.8499L15.8309 43.1516C16.5392 46.843 18.1359 50.3097 20.4869 53.2606L17.9962 57.9457C17.7623 58.3862 17.8431 58.9277 18.1957 59.2805C18.4138 59.4986 18.7043 59.6128 18.9984 59.6128C19.1797 59.6128 19.3626 59.5694 19.5305 59.4799L24.2154 56.9892C27.1689 59.3425 30.6392 60.9399 34.3344 61.6471L37.6342 76.5789C37.749 77.0986 38.2097 77.4686 38.742 77.4686C39.2742 77.4686 39.7349 77.0986 39.8497 76.5789L41.3681 69.7085C41.5034 69.0968 41.117 68.4911 40.5052 68.356C39.8935 68.2207 39.288 68.6071 39.1527 69.2189L38.7423 71.0763L33.6949 48.2362C34.9034 48.8802 36.2282 49.285 37.61 49.4288L37.6172 53.1265C37.6184 53.7523 38.126 54.2588 38.7516 54.2588C38.7524 54.2588 38.7531 54.2588 38.7539 54.2588C39.3804 54.2576 39.8874 53.7487 39.8862 53.122L39.8789 49.4282C41.2566 49.2842 42.5773 48.8811 43.783 48.2395L40.1451 64.7162C40.1382 64.7477 40.1451 64.7162 40.1409 64.748C40.0056 65.3597 40.392 65.9653 41.0038 66.1005C41.6149 66.2356 42.221 65.8494 42.3563 65.2376L43.1498 61.6475C46.8436 60.9406 50.3127 59.3439 53.2659 56.9917L57.9469 59.4801C58.115 59.5694 58.2977 59.613 58.479 59.613C58.7731 59.613 59.0635 59.4987 59.2817 59.2806C59.6345 58.928 59.7154 58.3862 59.4812 57.9458L56.993 53.2661C59.3465 50.3139 60.9447 46.8454 61.6533 43.1518L76.5945 39.85C77.1143 39.7352 77.4842 39.2745 77.4842 38.7422C77.4845 38.2098 77.1145 37.7492 76.5948 37.6345ZM59.2206 33.7949L58.8182 33.7059L52.6672 32.3466L55.8227 26.4113C57.4281 28.6325 58.5816 31.1394 59.2206 33.7949ZM53.6562 22.8463L53.6674 22.8402L55.7362 21.7405L54.6364 23.8091L54.3997 24.2545L50.3677 31.8386L46.5005 30.9841L45.6435 27.106L53.6562 22.8463ZM43.6882 18.2579C46.341 18.897 48.8458 20.0502 51.065 21.6539L45.1352 24.8061L43.6882 18.2579ZM33.7963 18.2579L33.4951 19.6205L32.3483 24.8099L26.4162 21.656C28.636 20.0512 31.1423 18.8973 33.7963 18.2579ZM18.2641 33.7949C18.9023 31.1423 20.0549 28.6369 21.6578 26.4174L24.8106 32.3484L18.2641 33.7949ZM27.1102 31.8401L21.7414 21.7408L31.8402 27.1097L30.9841 30.9841L27.1102 31.8401ZM18.268 43.6905L24.8064 45.1355L21.6596 51.0549C20.059 48.839 18.9074 46.3386 18.268 43.6905ZM21.7414 55.7353L27.1061 45.6435L30.9859 46.5008L31.8401 50.3663L21.7414 55.7353ZM33.7864 59.2088C31.1382 58.5695 28.6375 57.4177 26.4219 55.8168L32.3415 52.6698L33.7864 59.2088ZM39.6143 47.1753C39.612 47.1755 39.61 47.1758 39.6081 47.176C39.4838 47.1887 39.3586 47.1974 39.2329 47.2046C39.2135 47.2056 39.1943 47.2079 39.1749 47.2088C39.0316 47.2161 38.8874 47.2197 38.7423 47.2197C38.7416 47.2197 38.741 47.2197 38.7404 47.2197C38.5959 47.2197 38.4524 47.2159 38.3097 47.2088C38.2892 47.2077 38.2687 47.2055 38.248 47.2043C38.1236 47.197 37.9996 47.1884 37.8768 47.176C37.8734 47.1756 37.8701 47.175 37.8668 47.1747C33.7568 46.7515 30.5083 43.3825 30.2718 39.2206C30.2707 39.2029 30.2687 39.1854 30.2678 39.1675C30.2616 39.0434 30.2592 38.9184 30.2583 38.7929C30.2595 38.7712 30.2615 38.7497 30.2615 38.7276C30.2615 38.7082 30.2595 38.6891 30.2585 38.6699C30.2594 38.5467 30.2616 38.4241 30.2678 38.3022C30.2689 38.2805 30.2713 38.2592 30.2725 38.2375C30.2796 38.1142 30.2883 37.9913 30.3007 37.8695C30.3013 37.864 30.3022 37.8587 30.3026 37.8533C30.715 33.8742 33.8884 30.7028 37.8687 30.2939C37.8713 30.2936 37.8739 30.2931 37.8766 30.293C38.0002 30.2804 38.1248 30.2716 38.25 30.2645C38.2699 30.2633 38.2898 30.2612 38.3097 30.2601C38.453 30.2529 38.5973 30.2491 38.7424 30.2491C38.8875 30.2491 39.0316 30.2529 39.1751 30.2601C39.195 30.2612 39.2149 30.2633 39.2349 30.2645C39.36 30.2718 39.4846 30.2804 39.6082 30.293C39.6108 30.2933 39.6132 30.2937 39.6158 30.2939C41.6065 30.4983 43.3956 31.3938 44.7384 32.7358C44.7391 32.7366 44.7399 32.7374 44.7406 32.7381C46.0812 34.079 46.9759 35.8652 47.1822 37.8527C47.1828 37.8584 47.1837 37.864 47.1843 37.8696C47.1967 37.9915 47.2052 38.1142 47.2124 38.2374C47.2136 38.2592 47.2161 38.2807 47.2171 38.3023C47.2244 38.4455 47.228 38.5896 47.228 38.7345C47.228 38.8798 47.2242 39.0242 47.217 39.1677C47.2161 39.1855 47.2141 39.2031 47.213 39.2208C46.9765 43.3839 43.7261 46.7537 39.6143 47.1753ZM43.6882 59.211L45.134 52.669L51.0596 55.8191C48.8417 57.4209 46.3385 58.5725 43.6882 59.211ZM45.642 50.3693L46.4968 46.5011L50.3714 45.6449L55.736 55.7353L45.642 50.3693ZM55.8205 51.0605L52.6712 45.1367L59.2165 43.6904C58.5765 46.3407 57.4234 48.8435 55.8205 51.0605ZM48.281 43.7739C48.2442 43.7783 48.2809 43.7737 48.2441 43.7821C48.8885 42.5733 49.2935 41.2485 49.4371 39.8665L53.135 39.8738C53.1358 39.8738 53.1365 39.8738 53.1373 39.8738C53.7627 39.8738 54.2705 39.3674 54.2718 38.7415C54.2731 38.115 53.7662 37.606 53.1395 37.6046L49.4366 37.5974C49.2927 36.2205 48.8897 34.9001 48.2488 33.6949C48.2541 33.6961 48.2488 33.695 48.2541 33.6961L71.0925 38.7421L48.281 43.7739Z" fill="#E4E4E4"/>
<path d="M38.7423 33.3228C35.7585 33.3228 33.3311 35.7502 33.3311 38.734C33.3311 41.7177 35.7585 44.1452 38.7423 44.1452C41.726 44.1452 44.1535 41.7177 44.1535 38.734C44.1535 35.7502 41.726 33.3228 38.7423 33.3228ZM38.7423 41.8762C37.0096 41.8762 35.6 40.4666 35.6 38.734C35.6 37.0013 37.0096 35.5917 38.7423 35.5917C40.4749 35.5917 41.8845 37.0013 41.8845 38.734C41.8843 40.4666 40.4748 41.8762 38.7423 41.8762Z" fill="#E4E4E4"/>
</svg>
