<svg width="78" height="78" viewBox="0 0 78 78" fill="none" xmlns="http://www.w3.org/2000/svg">
<path d="M18.9981 23.2911C8.52255 23.2911 0 31.8136 0 42.2892C0 48.7932 3.09394 55.7862 9.19601 63.074C10.1027 64.1568 11.0062 65.1602 11.8732 66.0756C7.93325 67.151 5.5677 69.0831 5.5677 71.3382C5.5677 75.3303 12.4871 77.4845 18.9975 77.4845C25.508 77.4845 32.4273 75.3302 32.4273 71.3382C32.4273 69.085 30.0625 67.1524 26.1252 66.0765C27.6982 64.4159 29.3907 62.4621 30.9967 60.2829C31.369 59.7776 31.2613 59.0664 30.7561 58.6942C30.2513 58.3223 29.5397 58.4298 29.1674 58.9349C27.2284 61.5662 25.1297 63.8787 23.2984 65.7154C23.0885 65.8226 22.9129 65.9927 22.8029 66.2071C21.1624 67.8193 19.7819 69.0154 18.9986 69.6688C18.2239 69.0217 16.8644 67.8419 15.245 66.2507C15.1287 65.996 14.9246 65.7963 14.6755 65.6849C9.52895 60.5084 2.27233 51.565 2.27233 42.2895C2.27233 33.067 9.77548 25.5639 18.998 25.5639C28.2205 25.5639 35.7236 33.067 35.7236 42.2895C35.7236 46.317 34.3513 50.6665 31.6448 55.217C31.3241 55.7565 31.5011 56.4538 32.0405 56.7744C32.5799 57.0951 33.2772 56.9181 33.5979 56.3787C36.5163 51.4717 37.9961 46.7315 37.9961 42.2895C37.9962 31.8136 29.4737 23.2911 18.9981 23.2911ZM18.3027 72.0321C18.5073 72.1906 18.7528 72.2697 18.9981 72.2697C19.2434 72.2697 19.4888 72.1906 19.6935 72.0321C19.8329 71.9242 21.7316 70.4435 24.2624 67.969C28.0945 68.7505 30.1552 70.2553 30.1552 71.3384C30.1552 72.1473 29.0465 73.1016 27.2617 73.8288C25.0728 74.7209 22.1379 75.2123 18.9977 75.2123C12.1866 75.2123 7.84018 72.9177 7.84018 71.3384C7.84018 70.2537 9.90139 68.7498 13.7357 67.9682C16.2806 70.4574 18.182 71.9386 18.3027 72.0321Z" fill="#E4E4E4"/>
<path d="M18.9982 34.0287C17.201 34.0287 15.4921 34.5961 14.0563 35.6695C13.5538 36.0453 13.4509 36.7574 13.8265 37.2599C14.2024 37.7624 14.9145 37.8651 15.4169 37.4897C16.4568 36.7123 17.6952 36.3012 18.998 36.3012C22.2997 36.3012 24.9858 38.9873 24.9858 42.2892C24.9858 45.5909 22.2997 48.277 18.998 48.277C15.6963 48.277 13.0102 45.5908 13.0102 42.2892C13.0102 41.7258 13.0882 41.1687 13.2418 40.6339C13.4149 40.0308 13.0664 39.4015 12.4633 39.2282C11.8604 39.0557 11.2309 39.4038 11.0577 40.0069C10.8456 40.7458 10.738 41.5136 10.738 42.2892C10.738 46.8438 14.4435 50.5495 18.9983 50.5495C23.553 50.5495 27.2586 46.844 27.2586 42.2892C27.2585 37.7344 23.5528 34.0287 18.9982 34.0287Z" fill="#E4E4E4"/>
<path d="M68.5142 33.0098C69.0924 32.3895 69.6879 31.7212 70.285 31.0078C75.0155 25.3579 77.4141 19.9266 77.4141 14.8642C77.4141 6.66822 70.746 0 62.5499 0C56.5625 0 51.1866 3.56339 48.8543 9.07811C48.6098 9.65607 48.8802 10.3229 49.458 10.5671C50.0358 10.8114 50.7028 10.5412 50.947 9.96344C52.9232 5.29135 57.4775 2.27233 62.5499 2.27233C69.4931 2.27233 75.1418 7.92114 75.1418 14.8643C75.1418 24.2538 65.2839 33.2494 62.5494 35.5635C61.9468 35.0542 60.9982 34.2207 59.8861 33.1304C59.7751 32.9105 59.5959 32.7362 59.3807 32.6283C55.4576 28.6783 49.958 21.8882 49.958 14.8643C49.958 14.2367 49.4495 13.7281 48.8218 13.7281C48.1943 13.7281 47.6855 14.2367 47.6855 14.8643C47.6855 19.9266 50.0841 25.3579 54.8147 31.0079C55.4118 31.7209 56.0068 32.3889 56.5846 33.0091C53.6557 33.8891 51.9648 35.387 51.9648 37.1908C51.9648 38.7121 53.1988 40.0528 55.4398 40.9658C57.3572 41.7471 59.8823 42.1775 62.5497 42.1775C65.2171 42.1775 67.7421 41.7471 69.6597 40.9658C71.9003 40.0526 73.1343 38.7119 73.1343 37.1907C73.1341 35.3902 71.442 33.8909 68.5142 33.0098ZM62.5496 39.9049C57.1712 39.9049 54.2372 38.1119 54.2372 37.1905C54.2372 36.5903 55.5719 35.4919 58.4219 34.886C60.3395 36.7518 61.7628 37.8605 61.8546 37.9318C62.0594 38.0902 62.3047 38.1694 62.55 38.1694C62.7954 38.1694 63.0405 38.0902 63.2454 37.9318C63.3373 37.8608 64.7603 36.7519 66.6779 34.8863C67.9476 35.157 69.0476 35.5537 69.8173 36.0222C70.4715 36.4208 70.8621 36.8576 70.8621 37.1905C70.8618 38.1119 67.9278 39.9049 62.5496 39.9049Z" fill="#E4E4E4"/>
<path d="M62.5498 8.25275C58.9043 8.25275 55.9382 11.2187 55.9382 14.8645C55.9382 18.5101 58.9041 21.476 62.5498 21.476C66.1956 21.476 69.1615 18.5102 69.1615 14.8645C69.1615 11.2188 66.1956 8.25275 62.5498 8.25275ZM62.55 19.2035C60.1571 19.2035 58.2107 17.257 58.2107 14.8644C58.2107 12.4717 60.1572 10.5251 62.55 10.5251C64.9426 10.5251 66.8893 12.4716 66.8893 14.8644C66.8891 17.257 64.9426 19.2035 62.55 19.2035Z" fill="#E4E4E4"/>
<path d="M47.8112 36.0544H47.2924C46.9146 36.0544 46.5351 36.0794 46.1637 36.1289C45.5419 36.2117 45.1046 36.7828 45.1873 37.4051C45.2634 37.9764 45.7513 38.3917 46.3122 38.3917C46.3621 38.3917 46.4127 38.3885 46.4635 38.3817C46.7358 38.3455 47.0147 38.3272 47.2925 38.3272H47.8112V38.3271C48.4388 38.3271 48.9474 37.8186 48.9474 37.1908C48.9474 36.5631 48.4388 36.0544 47.8112 36.0544Z" fill="#E4E4E4"/>
<path d="M44.0548 70.1442C44.053 70.1442 44.0513 70.1442 44.0495 70.1442L42.5488 70.151C41.9214 70.1539 41.415 70.665 41.4177 71.2924C41.4205 71.9182 41.9288 72.4235 42.5538 72.4235C42.5556 72.4235 42.5573 72.4235 42.5591 72.4235L44.0598 72.4167C44.6872 72.4138 45.1936 71.9028 45.1909 71.2753C45.1881 70.6494 44.68 70.1442 44.0548 70.1442Z" fill="#E4E4E4"/>
<path d="M49.1594 50.772H47.6587C47.0311 50.772 46.5225 51.2808 46.5225 51.9082C46.5225 52.5358 47.031 53.0445 47.6587 53.0445H49.1594C49.787 53.0445 50.2956 52.536 50.2956 51.9082C50.2956 51.2808 49.7871 50.772 49.1594 50.772Z" fill="#E4E4E4"/>
<path d="M43.1389 38.3694C42.7135 37.9084 41.995 37.8793 41.5334 38.3046C41.1098 38.6952 40.7245 39.1306 40.3882 39.5988C40.0221 40.1087 40.1387 40.8186 40.6484 41.1847C40.8489 41.3288 41.0807 41.3981 41.3103 41.3981C41.6637 41.3981 42.0121 41.2336 42.2341 40.9246C42.4808 40.5812 42.7635 40.2616 43.0742 39.9749C43.5354 39.5495 43.5643 38.8307 43.1389 38.3694Z" fill="#E4E4E4"/>
<path d="M50.0578 70.1166C50.056 70.1166 50.0543 70.1166 50.0525 70.1166L48.552 70.1235C47.9246 70.1262 47.4182 70.6374 47.4209 71.2648C47.4236 71.8906 47.932 72.3959 48.557 72.3959C48.5588 72.3959 48.5605 72.3959 48.5623 72.3959L50.0628 72.3891C50.6902 72.3864 51.1966 71.8752 51.1939 71.2477C51.191 70.622 50.6828 70.1166 50.0578 70.1166Z" fill="#E4E4E4"/>
<path d="M38.0519 70.1713C38.0501 70.1713 38.0484 70.1713 38.0466 70.1713L36.5459 70.1781C35.9185 70.181 35.4121 70.692 35.4148 71.3195C35.4177 71.9452 35.9256 72.4506 36.5509 72.4506C36.5527 72.4506 36.5544 72.4506 36.5562 72.4506L38.0569 72.4437C38.6843 72.4409 39.1907 71.9298 39.188 71.3024C39.1852 70.6764 38.677 70.1713 38.0519 70.1713Z" fill="#E4E4E4"/>
<path d="M43.9781 49.8169C43.6211 49.5917 43.2853 49.3287 42.9804 49.0355C42.528 48.6004 41.8086 48.6148 41.3738 49.0667C40.9387 49.5189 40.9527 50.2382 41.4049 50.6731C41.8208 51.0731 42.2786 51.4316 42.7656 51.7388C42.9539 51.8576 43.1635 51.9142 43.3708 51.9142C43.7479 51.9142 44.1168 51.7267 44.333 51.384C44.6679 50.8534 44.5089 50.1516 43.9781 49.8169Z" fill="#E4E4E4"/>
<path d="M41.1849 45.7473C41.1086 45.3556 41.0699 44.9528 41.0699 44.5496L41.0702 44.4865C41.0776 43.8591 40.5748 43.3445 39.9472 43.3372C39.9428 43.3371 39.9383 43.3371 39.9338 43.3371C39.3124 43.3371 38.8051 43.8371 38.7978 44.4602L38.7974 44.5498C38.7974 45.0985 38.8502 45.6477 38.9543 46.1821C39.0599 46.7246 39.5354 47.101 40.0683 47.101C40.1402 47.101 40.2134 47.0942 40.2867 47.0798C40.9028 46.9598 41.3047 46.3632 41.1849 45.7473Z" fill="#E4E4E4"/>
<path d="M55.1623 50.772H53.6616C53.034 50.772 52.5254 51.2808 52.5254 51.9082C52.5254 52.5358 53.034 53.0445 53.6616 53.0445H55.1623C55.7899 53.0445 56.2985 52.536 56.2985 51.9082C56.2985 51.2808 55.7899 50.772 55.1623 50.772Z" fill="#E4E4E4"/>
<path d="M73.4047 53.0854C72.9669 52.7399 72.499 52.426 72.0136 52.1528C71.4675 51.8447 70.7742 52.0383 70.4661 52.5851C70.1581 53.1317 70.3515 53.8248 70.8983 54.1326C71.2812 54.3486 71.6507 54.5962 71.9962 54.869C72.2051 55.0338 72.453 55.1136 72.6996 55.1136C73.0353 55.1136 73.368 54.9653 73.5922 54.6814C73.9812 54.1888 73.8973 53.4742 73.4047 53.0854Z" fill="#E4E4E4"/>
<path d="M69.1871 70.9309C69.1009 70.3093 68.5264 69.8742 67.9061 69.9608C67.5339 70.0123 67.1529 70.0393 66.7729 70.0409L66.5602 70.0419C65.9326 70.0451 65.4264 70.5563 65.4295 71.1836C65.4326 71.8092 65.9407 72.3144 66.5655 72.3144C66.5675 72.3144 66.5693 72.3144 66.5711 72.3144L66.7833 72.3133C67.2632 72.3112 67.7457 72.2772 68.2171 72.2119C68.8389 72.126 69.2731 71.5523 69.1871 70.9309Z" fill="#E4E4E4"/>
<path d="M74.2018 67.7356C73.7688 67.281 73.0495 67.2636 72.5955 67.6966C72.2766 68.0003 71.9315 68.2815 71.5697 68.5324C71.0541 68.8899 70.9259 69.5978 71.2832 70.1138C71.504 70.432 71.858 70.6027 72.218 70.6027C72.4414 70.6027 72.6669 70.537 72.8644 70.4002C73.3223 70.0826 73.7592 69.7266 74.1629 69.3421C74.6173 68.9091 74.6346 68.1898 74.2018 67.7356Z" fill="#E4E4E4"/>
<path d="M76.4131 62.2175C75.7973 62.1014 75.2026 62.507 75.0864 63.1237C75.0048 63.556 74.8889 63.9851 74.7413 64.3991C74.5307 64.9901 74.8389 65.6401 75.43 65.8509C75.5561 65.8959 75.6851 65.9172 75.8117 65.9172C76.2784 65.9172 76.7161 65.6272 76.882 65.1623C77.0692 64.6372 77.2164 64.0928 77.3198 63.5442C77.4356 62.9275 77.0297 62.3334 76.4131 62.2175Z" fill="#E4E4E4"/>
<path d="M77.088 58.5652C76.934 58.0287 76.7363 57.5002 76.5 56.9937C76.2345 56.425 75.5589 56.1792 74.9898 56.4443C74.4212 56.7098 74.1753 57.3858 74.4406 57.9545C74.6267 58.3533 74.7826 58.7698 74.9038 59.192C75.0468 59.6904 75.5014 60.0151 75.9954 60.0151C76.0994 60.0151 76.2047 60.0008 76.3094 59.9708C76.9125 59.7975 77.261 59.1683 77.088 58.5652Z" fill="#E4E4E4"/>
<path d="M61.1655 50.772H59.6648C59.0372 50.772 58.5286 51.2808 58.5286 51.9082C58.5286 52.5358 59.0371 53.0445 59.6648 53.0445H61.1655C61.7931 53.0445 62.3017 52.536 62.3017 51.9082C62.3017 51.2808 61.7931 50.772 61.1655 50.772Z" fill="#E4E4E4"/>
<path d="M56.0606 70.0894C56.0588 70.0894 56.0572 70.0894 56.0553 70.0894L54.5547 70.0962C53.9272 70.0989 53.4209 70.6101 53.4236 71.2376C53.4265 71.8633 53.9347 72.3686 54.5597 72.3686C54.5615 72.3686 54.5632 72.3686 54.565 72.3686L56.0656 72.3618C56.6931 72.359 57.1995 71.8479 57.1967 71.2205C57.194 70.5947 56.6857 70.0894 56.0606 70.0894Z" fill="#E4E4E4"/>
<path d="M67.2182 50.7829C67.0575 50.7756 66.8947 50.7722 66.7346 50.7722H65.6675C65.0399 50.7722 64.5312 51.281 64.5312 51.9084C64.5312 52.536 65.0397 53.0446 65.6675 53.0446H66.7346V53.0445C66.8631 53.0445 66.9908 53.0474 67.1178 53.053C67.1349 53.0539 67.152 53.0542 67.1689 53.0542C67.7732 53.0542 68.2762 52.5781 68.303 51.9683C68.3307 51.3412 67.8451 50.8106 67.2182 50.7829Z" fill="#E4E4E4"/>
<path d="M62.0633 70.0623C62.0615 70.0623 62.0599 70.0623 62.058 70.0623L60.5574 70.0691C59.9299 70.0719 59.4236 70.5831 59.4263 71.2105C59.4292 71.8363 59.9373 72.3416 60.5624 72.3416C60.5642 72.3416 60.566 72.3416 60.5677 72.3416L62.0683 72.3348C62.6958 72.3319 63.2021 71.8209 63.1994 71.1934C63.1967 70.5675 62.6885 70.0623 62.0633 70.0623Z" fill="#E4E4E4"/>
</svg>
