<svg width="100" height="100" viewBox="0 0 100 100" fill="none" xmlns="http://www.w3.org/2000/svg">
<g clip-path="url(#clip0)">
<path d="M83.3398 0H16.6602C7.5 0 0 7.5 0 16.6602V83.3203C0 92.4805 7.5 99.9805 16.6602 99.9805H83.3203C92.4805 99.9805 99.9805 92.4805 99.9805 83.3203V16.6602C100 7.5 92.5 0 83.3398 0Z" fill="#FFD15D"/>
<path d="M83.3398 0H16.6602C7.5 0 0 7.5 0 16.6602V22.1094C29.1602 23.1445 47.1289 38.7305 56.9336 52.4805C68.5938 46.0156 83.5547 41.543 100 40.0781V16.6406C100 7.5 92.5 0 83.3398 0Z" fill="#4ABAA5"/>
<path d="M53.75 81.4648C48.75 87.3047 45.8398 93.75 44.1602 100H83.3203C92.4805 100 99.9805 92.5 99.9805 83.3398V60.8398C78.9648 62.9102 63.5352 69.7852 53.75 81.4648Z" fill="#FFD15D"/>
<path d="M57.7148 51.875C47.9102 38.125 29.1602 23.125 0 22.0898V42.9297C23.3398 43.9648 35.625 56.8945 41.0352 64.5898C40 65.8398 38.75 67.0898 37.6953 68.3398C29.1602 78.5352 25 89.7852 22.9102 100H44.375C46.0352 93.75 48.9648 87.2852 53.9648 81.4648C63.5547 70 78.9648 62.9297 100 60.8398V40.0195C83.125 41.4844 69.1602 45.4102 57.7148 51.875Z" fill="#435B6C"/>
<path d="M45.4102 55C44.1602 53.3398 42.6953 51.875 41.25 50.4102L42.7148 48.9453C44.1797 50.4102 45.625 52.0703 47.0898 53.5352L45.4102 55ZM35.2148 45.2148C33.5547 43.9648 31.875 42.9297 30 41.875L31.0352 40C32.9102 41.0352 34.5703 42.2852 36.25 43.5352L35.2148 45.2148ZM22.7148 38.125C20.8398 37.2852 18.9648 36.6602 16.875 36.0352L17.5 33.9453C19.5898 34.5703 21.4648 35.1953 23.5352 36.0352L22.7148 38.125ZM8.96484 34.375C7.08984 33.9648 5 33.75 2.92969 33.5352L3.14453 31.4453C5.23438 31.6602 7.30469 31.8555 9.39453 32.2852L8.96484 34.375Z" fill="white"/>
<path d="M40 81.25C38.9648 83.125 37.9102 85 37.0898 86.875L38.9648 87.7148C39.8047 85.8398 40.8398 83.9648 41.875 82.3047L40 81.25Z" fill="white"/>
<path d="M32.5 100H34.5898C35 98.5352 35.4297 96.875 35.8398 95.4102L33.75 94.7852C33.3398 96.4648 32.9102 98.3398 32.5 100Z" fill="white"/>
<path d="M49.375 69.5898C47.9102 71.0547 46.4648 72.7148 45 74.375L46.6602 75.625C47.9102 73.9649 49.375 72.5 50.8203 71.0352L49.375 69.5898Z" fill="white"/>
<path d="M100 49.375C99.1602 49.375 98.3398 49.5898 97.5 49.5898L97.7148 51.6797C98.5547 51.6797 99.1797 51.4649 100 51.4649V49.375Z" fill="white"/>
<path d="M61.25 60.625C59.375 61.6602 57.5 62.9102 55.8398 64.1602L57.0898 65.8203C58.75 64.5703 60.4297 63.5352 62.3047 62.4805L61.25 60.625Z" fill="white"/>
<path d="M82.9102 52.0898L83.3203 54.1797C85.4102 53.7695 87.2852 53.3398 89.3555 52.9297L88.9453 50.8398C87.0898 51.0352 85 51.6602 82.9102 52.0898Z" fill="white"/>
<path d="M74.7852 54.375C72.6953 55 70.8203 55.8398 68.75 56.6602L69.5898 58.5352C71.4648 57.6953 73.3398 56.875 75.4297 56.25L74.7852 54.375Z" fill="white"/>
<path d="M50.2148 57.9102C51.0547 59.1602 52.0898 60.625 52.7148 61.875L50.8398 62.9102C50 61.6602 49.1797 60.1953 48.3398 58.9453" fill="white"/>
<path d="M58.9648 3.33984C48.3398 3.33984 39.5898 12.3047 39.5898 22.9297C39.5898 33.5547 59.1797 57.3047 59.1797 57.3047C59.1797 57.3047 78.7695 33.7695 78.7695 22.9297C78.7695 12.0898 69.7852 3.33984 58.9648 3.33984Z" fill="#F3705B"/>
<path d="M58.9648 34.1602C65.178 34.1602 70.2148 29.1234 70.2148 22.9102C70.2148 16.697 65.178 11.6602 58.9648 11.6602C52.7516 11.6602 47.7148 16.697 47.7148 22.9102C47.7148 29.1234 52.7516 34.1602 58.9648 34.1602Z" fill="white"/>
</g>
<defs>
<clipPath id="clip0">
<rect width="100" height="100" fill="white"/>
</clipPath>
</defs>
</svg>
