<?xml version="1.0" encoding="utf-8"?>
<!-- Generator: Adobe Illustrator 23.0.2, SVG Export Plug-In . SVG Version: 6.00 Build 0)  -->
<svg version="1.1" id="Capa_1" xmlns="http://www.w3.org/2000/svg" xmlns:xlink="http://www.w3.org/1999/xlink" x="0px" y="0px"
	 viewBox="0 0 600 600" style="enable-background:new 0 0 600 600;" xml:space="preserve">
<style type="text/css">
	.st0{fill:#444242;}
	.st1{fill:#A3BD31;}
</style>
<g>
	<g>
		<path class="st0" d="M19.7,166.9V24.8c11.1-1.1,21.8-1.6,32.2-1.6c14,0,25.2,3.3,33.7,9.8c8.5,6.5,12.7,16.4,12.7,29.5
			c0,13.1-5.8,23.9-17.3,32.4c-11.5,8.5-25.3,12.7-41.3,12.7c-0.7,0-1.4,0-2.2,0v-6.6c0.5,0,1,0,1.4,0c13.2,0,24.6-3.5,34.4-10.4
			c9.7-6.9,14.6-15.9,14.6-27.1c0-11.1-3.4-19.2-10.2-24.2c-6.8-5-15.9-7.5-27.4-7.5c-6,0-13,0.3-21,0.8v134.3H19.7z"/>
		<path class="st0" d="M128.8,121.9l-18.6,45h-9.4l54.3-130.5h5.4l54.7,130.5h-10.2l-18.8-45H128.8z M157.4,51.2c-2,6-3.8,11-5.4,15
			l-20,48h51.2l-19.8-47.8C160.3,58.9,158.3,53.9,157.4,51.2z"/>
		<path class="st0" d="M301.8,160.1h-5.4l-37.8-91.7c-1.6-3.6-3.2-7.8-4.8-12.6c0,0.1-0.1,0.9-0.3,2.2c-0.2,1.3-0.4,3.1-0.7,5.3
			c-0.3,2.2-0.5,4-0.8,5.5l-15,98.1h-9l21.2-130.5h5.4l40.4,95.7c3.2,8,4.8,12.2,4.8,12.6c0.9-2.8,2.7-6.9,5.4-12.4l45-95.9h5.4
			l19.8,130.5h-9.6l-14.2-98.5c-0.9-6.5-1.4-10.9-1.4-13l-5.8,13.2L301.8,160.1z"/>
		<path class="st0" d="M409.7,166.9V38c10-1.1,20.5-1.6,31.7-1.6s20.5,3,28.3,8.9c7.7,5.9,11.6,14.9,11.6,26.9
			c0,12-5.3,21.8-15.8,29.5c-10.5,7.7-23,11.5-37.4,11.5c-0.7,0-1.4,0-2.2,0v-6.4c0.5,0,1,0,1.4,0c11.9,0,22.2-3.1,31-9.4
			c8.8-6.3,13.2-14.4,13.2-24.4c0-10-3.1-17.2-9.3-21.8c-6.2-4.5-14.4-6.8-24.5-6.8c-5.3,0-11.6,0.3-18.8,0.8v121.7H409.7z"/>
		<path class="st0" d="M513.6,121.9l-18.6,45h-9.4L540,36.4h5.4l54.7,130.5H590l-18.8-45H513.6z M542.2,51.2c-2,6-3.8,11-5.4,15
			l-20,48H568l-19.8-47.8C545.1,58.9,543.1,53.9,542.2,51.2z"/>
	</g>
	<g>
		<path class="st0" d="M243,195.5c10,0,18.3,3.1,25,9.2c6.7,6.2,10,14.5,10,25.1c0,10.6-3.1,18.5-9.2,23.9c-6.2,5.3-14.1,8-23.8,8
			c-6.7,0-13.7-0.3-20.8-1v-64.6C229.6,195.7,235.8,195.5,243,195.5z M245,257.5c8.5,0,15.4-2.3,20.5-6.9c5.2-4.6,7.7-11.5,7.7-20.8
			s-2.9-16.6-8.7-22.1c-5.8-5.5-13-8.2-21.5-8.2c-6.1,0-10.7,0.1-14,0.4v56.8C233,257.3,238.3,257.5,245,257.5z"/>
		<path class="st0" d="M298,260.9v-64.8h30.3v4h-25.7v23.6h23.2v3.9h-23.2v29.2h26.7v4.2H298z"/>
		<path class="st0" d="M347.7,260.9v-64.8h4.6v60.6h29.8v4.2H347.7z"/>
	</g>
	<g>
		<path class="st0" d="M148.7,425.8V283.5c12.7-0.9,23.2-1.4,31.8-1.4c13.6,0,24.8,3.5,33.6,10.5c8.8,7,13.2,16.9,13.2,29.7
			c0,8.7-2.5,16.7-7.6,24.2c-5.1,7.5-10.7,13.4-17,17.8c4.9,6.8,11,14.9,18.3,24.3c7.3,9.4,12,15.3,14.1,17.7
			c8.1,8.7,17.3,13.6,27.6,14.8l-0.2,6.4c-8.1-0.1-14.7-1.4-19.8-3.7c-5.1-2.3-9.9-5.9-14.5-10.7c-4.6-4.8-16-19.7-34.3-44.8
			c-13.1,0-24.9-0.4-35.6-1.2v58.7H148.7z M188.1,360.3c5.9,0,12.1-3.9,18.8-11.6c6.7-7.7,10-16.7,10-26.9
			c0-10.2-3.4-17.9-10.3-23.2c-6.9-5.3-16-7.9-27.3-7.9c-6,0-13,0.3-21,0.8v67.7C168.9,359.9,178.9,360.3,188.1,360.3z"/>
		<path class="st0" d="M277.8,425.8V296.1h9.2v129.7H277.8z"/>
		<path class="st0" d="M392.3,427.8c-18.5,0-34-6.5-46.5-19.4c-12.5-12.9-18.8-28.7-18.8-47.5c0-18.7,6.3-34.5,18.8-47.5
			c12.5-12.9,28-19.4,46.5-19.4s34,6.5,46.6,19.4c12.5,12.9,18.8,28.7,18.8,47.5c0,18.7-6.3,34.5-18.8,47.5
			C426.3,421.3,410.8,427.8,392.3,427.8z M392.4,302.3c-16.1,0-29.4,5.7-40,17c-10.6,11.3-15.9,25.2-15.9,41.7
			c0,16.5,5.3,30.3,15.9,41.6c10.6,11.3,23.9,16.9,40,16.9c16.1,0,29.3-5.6,39.9-16.9c10.5-11.3,15.8-25.1,15.8-41.6
			c0-16.4-5.3-30.3-15.8-41.7C421.7,308,408.4,302.3,392.4,302.3z"/>
	</g>
	<g>
		
			<rect x="-7.1" y="497.3" transform="matrix(0.8384 0.545 -0.545 0.8384 285.1367 45.3905)" class="st1" width="146.3" height="12.7"/>
		
			<rect x="108.8" y="497.3" transform="matrix(-0.8384 0.545 -0.545 -0.8384 609.0306 826.7191)" class="st1" width="146.3" height="12.7"/>
		
			<rect x="224.8" y="497.3" transform="matrix(0.8384 0.545 -0.545 0.8384 322.6081 -81.014)" class="st1" width="146.3" height="12.7"/>
		
			<rect x="340.8" y="497.3" transform="matrix(-0.8384 0.545 -0.545 -0.8384 1035.4387 700.3146)" class="st1" width="146.3" height="12.7"/>
		
			<rect x="108.8" y="497.3" transform="matrix(0.8384 0.545 -0.545 0.8384 303.8724 -17.8118)" class="st1" width="146.3" height="12.7"/>
		
			<rect x="224.8" y="497.3" transform="matrix(-0.8384 0.545 -0.545 -0.8384 822.2347 763.5168)" class="st1" width="146.3" height="12.7"/>
		
			<rect x="340.8" y="497.3" transform="matrix(0.8384 0.545 -0.545 0.8384 341.3437 -144.2162)" class="st1" width="146.3" height="12.7"/>
		
			<rect x="456.8" y="497.3" transform="matrix(-0.8384 0.545 -0.545 -0.8384 1248.6428 637.1124)" class="st1" width="146.3" height="12.7"/>
	</g>
</g>
</svg>
