<?xml version="1.0" encoding="utf-8"?>
<!-- Generator: Adobe Illustrator 23.0.2, SVG Export Plug-In . SVG Version: 6.00 Build 0)  -->
<svg version="1.1" id="Capa_1" xmlns="http://www.w3.org/2000/svg" xmlns:xlink="http://www.w3.org/1999/xlink" x="0px" y="0px"
	 viewBox="0 0 600 600" style="enable-background:new 0 0 600 600;" xml:space="preserve">
<style type="text/css">
	.st0{fill:#B6B6BB;}
	.st1{fill:#A3BD31;}
</style>
<g>
	<path class="st0" d="M18.9,192.7V51.1c11-1.1,21.7-1.6,32.1-1.6c13.9,0,25.1,3.3,33.6,9.8c8.4,6.5,12.6,16.3,12.6,29.4
		c0,13.1-5.7,23.8-17.2,32.3c-11.5,8.4-25.2,12.7-41.1,12.7c-0.7,0-1.4,0-2.2,0V127c0.5,0,1,0,1.4,0c13.1,0,24.6-3.5,34.3-10.4
		c9.7-6.9,14.5-15.9,14.5-27c0-11.1-3.4-19.1-10.2-24.1c-6.8-5-15.9-7.5-27.3-7.5c-6,0-12.9,0.3-20.9,0.8v133.9H18.9z"/>
	<path class="st0" d="M127.7,147.9l-18.5,44.8h-9.4L154,62.7h5.4l54.6,130.1h-10.2L185,147.9H127.7z M156.2,77.4
		c-2,6-3.8,11-5.4,14.9l-19.9,47.8h51l-19.7-47.6C159.1,85.1,157.1,80.1,156.2,77.4z"/>
	<path class="st0" d="M300.2,186h-5.4l-37.7-91.4c-1.6-3.6-3.2-7.8-4.8-12.6c0,0.1-0.1,0.9-0.3,2.2c-0.2,1.3-0.4,3.1-0.7,5.3
		c-0.3,2.2-0.5,4-0.8,5.5l-14.9,97.8h-9l21.1-130.1h5.4l40.2,95.4c3.2,8,4.8,12.2,4.8,12.6c0.9-2.8,2.7-6.9,5.4-12.4l44.8-95.6h5.4
		l19.7,130.1h-9.6l-14.1-98.2c-0.9-6.5-1.4-10.8-1.4-12.9l-5.8,13.1L300.2,186z"/>
	<path class="st0" d="M407.8,192.7V64.2c10-1.1,20.5-1.6,31.6-1.6c11.1,0,20.5,3,28.2,8.9c7.7,5.9,11.6,14.8,11.6,26.8
		s-5.2,21.7-15.7,29.4c-10.5,7.6-22.9,11.5-37.3,11.5c-0.7,0-1.4,0-2.2,0v-6.4c0.5,0,1,0,1.4,0c11.8,0,22.1-3.1,30.9-9.4
		c8.8-6.2,13.1-14.3,13.1-24.3s-3.1-17.2-9.3-21.7c-6.2-4.5-14.3-6.8-24.4-6.8c-5.3,0-11.6,0.3-18.7,0.8v121.3H407.8z"/>
	<path class="st0" d="M511.4,147.9l-18.5,44.8h-9.4l54.2-130.1h5.4l54.6,130.1h-10.2l-18.7-44.8H511.4z M539.8,77.4
		c-2,6-3.8,11-5.4,14.9l-19.9,47.8h51l-19.7-47.6C542.8,85.1,540.8,80.1,539.8,77.4z"/>
</g>
<g>
	<path class="st0" d="M241.5,221.3c10,0,18.3,3.1,25,9.2c6.7,6.1,10,14.5,10,25.1c0,10.6-3.1,18.5-9.2,23.8c-6.1,5.3-14.1,8-23.8,8
		c-6.7,0-13.6-0.3-20.7-1v-64.4C228.1,221.5,234.4,221.3,241.5,221.3z M243.5,283.1c8.5,0,15.3-2.3,20.5-6.9
		c5.1-4.6,7.7-11.5,7.7-20.7c0-9.2-2.9-16.6-8.7-22c-5.8-5.4-13-8.2-21.5-8.2c-6,0-10.7,0.1-13.9,0.4v56.7
		C231.6,282.9,236.9,283.1,243.5,283.1z"/>
	<path class="st0" d="M296.4,286.5v-64.6h30.2v4H301v23.5h23.1v3.9H301v29.1h26.6v4.2H296.4z"/>
	<path class="st0" d="M345.9,286.5v-64.6h4.6v60.5h29.7v4.2H345.9z"/>
</g>
<g>
	<path class="st0" d="M147.5,450.9V309.1c12.6-0.9,23.2-1.4,31.7-1.4c13.5,0,24.7,3.5,33.5,10.5s13.1,16.8,13.1,29.6
		c0,8.6-2.5,16.7-7.6,24.1c-5,7.4-10.7,13.3-16.9,17.7c4.9,6.8,11,14.8,18.2,24.2c7.2,9.4,11.9,15.2,14,17.6
		c8.1,8.6,17.3,13.5,27.5,14.7l-0.2,6.4c-8.1-0.1-14.7-1.4-19.7-3.7c-5-2.3-9.9-5.9-14.4-10.7c-4.6-4.8-16-19.7-34.2-44.6
		c-13,0-24.8-0.4-35.5-1.2v58.6H147.5z M186.7,385.6c5.8,0,12.1-3.8,18.7-11.6c6.6-7.7,10-16.6,10-26.8s-3.4-17.9-10.3-23.1
		c-6.8-5.2-15.9-7.9-27.2-7.9c-6,0-12.9,0.3-20.9,0.8v67.5C167.7,385.2,177.6,385.6,186.7,385.6z"/>
	<path class="st0" d="M276.2,450.9V321.6h9.2v129.3H276.2z"/>
	<path class="st0" d="M390.3,452.9c-18.5,0-33.9-6.4-46.4-19.3c-12.5-12.9-18.7-28.7-18.7-47.3c0-18.7,6.2-34.4,18.7-47.3
		c12.5-12.9,28-19.3,46.4-19.3c18.5,0,33.9,6.4,46.4,19.3c12.5,12.9,18.7,28.7,18.7,47.3c0,18.7-6.2,34.4-18.7,47.3
		C424.3,446.5,408.8,452.9,390.3,452.9z M390.4,327.8c-16,0-29.3,5.6-39.8,16.9c-10.6,11.3-15.8,25.1-15.8,41.5
		c0,16.4,5.3,30.2,15.8,41.4c10.6,11.2,23.8,16.8,39.8,16.8c16,0,29.3-5.6,39.7-16.8c10.5-11.2,15.7-25,15.7-41.4
		c0-16.4-5.2-30.2-15.7-41.5C419.7,333.4,406.4,327.8,390.4,327.8z"/>
</g>
<g>
	
		<rect x="-7.9" y="522.2" transform="matrix(0.8384 0.545 -0.545 0.8384 298.5399 49.9353)" class="st1" width="145.8" height="12.7"/>
	
		<rect x="107.8" y="522.2" transform="matrix(-0.8384 0.545 -0.545 -0.8384 620.1907 873.1694)" class="st1" width="145.8" height="12.7"/>
	
		<rect x="223.4" y="522.2" transform="matrix(0.8384 0.545 -0.545 0.8384 335.9012 -76.0978)" class="st1" width="145.8" height="12.7"/>
	
		<rect x="339" y="522.2" transform="matrix(-0.8384 0.545 -0.545 -0.8384 1045.3464 747.1362)" class="st1" width="145.8" height="12.7"/>
	
		<rect x="107.8" y="522.2" transform="matrix(0.8384 0.545 -0.545 0.8384 317.2206 -13.0813)" class="st1" width="145.8" height="12.7"/>
	
		<rect x="223.4" y="522.2" transform="matrix(-0.8384 0.545 -0.545 -0.8384 832.7686 810.1528)" class="st1" width="145.8" height="12.7"/>
	
		<rect x="339" y="522.2" transform="matrix(0.8384 0.545 -0.545 0.8384 354.5818 -139.1144)" class="st1" width="145.8" height="12.7"/>
	
		<rect x="454.6" y="522.2" transform="matrix(-0.8384 0.545 -0.545 -0.8384 1257.9243 684.1196)" class="st1" width="145.8" height="12.7"/>
</g>
</svg>
