<svg width="184" height="161" viewBox="0 0 184 161" fill="none" xmlns="http://www.w3.org/2000/svg">
<path d="M6.46191 44.3726V1.16984C9.84373 0.831657 13.0565 0.662567 16.2692 0.662567C20.4965 0.662567 23.9628 1.67711 26.4992 3.62166C29.0356 5.65075 30.3883 8.60984 30.3883 12.5835C30.3883 16.5571 28.6128 19.8544 25.1465 22.4753C21.5956 25.0117 17.4528 26.3644 12.5492 26.3644C12.3801 26.3644 12.1265 26.3644 11.8728 26.3644V24.3353C12.0419 24.3353 12.211 24.3353 12.2956 24.3353C16.3537 24.3353 19.8201 23.3207 22.7792 21.2071C25.7383 19.0935 27.2601 16.388 27.2601 12.9217C27.2601 9.45529 26.2456 7.08802 24.1319 5.5662C22.1028 4.04438 19.3128 3.28347 15.7619 3.28347C13.9019 3.28347 11.7883 3.36802 9.33646 3.53711V44.3726H6.46191Z" fill="#B7B7BD"/>
<path d="M39.6883 30.6762L34.1083 44.3726H31.2337L47.8046 4.6362H49.411L66.0665 44.3726H62.9383L57.1892 30.6762H39.6883ZM48.3965 9.20166C47.8046 11.0617 47.2128 12.5835 46.7901 13.7671L40.7028 28.3935H56.2592L50.2565 13.8517C49.3265 11.4844 48.7346 9.96256 48.3965 9.20166Z" fill="#B7B7BD"/>
<path d="M92.4446 42.3435H90.8383L79.3401 14.4435C78.8328 13.3444 78.3256 12.0762 77.9028 10.6389C77.9028 10.6389 77.9028 10.8926 77.8183 11.3153C77.7337 11.738 77.6492 12.2453 77.5647 12.9217C77.4801 13.598 77.3956 14.1898 77.311 14.6126L72.7456 44.5417H70.0401L76.4656 4.80529H78.0719L90.331 33.9735C91.3456 36.4253 91.7683 37.6935 91.7683 37.778C92.0219 36.9326 92.6137 35.6644 93.3746 33.9735L107.156 4.6362H108.762L114.765 44.3726H111.806L107.494 14.3589C107.24 12.3298 107.071 11.0617 107.071 10.3853L105.296 14.4435L92.4446 42.3435Z" fill="#B7B7BD"/>
<path d="M125.333 44.3726V5.14347C128.376 4.80529 131.589 4.6362 134.971 4.6362C138.353 4.6362 141.227 5.5662 143.595 7.34165C145.962 9.11711 147.146 11.9071 147.146 15.5426C147.146 19.178 145.539 22.2217 142.326 24.5044C139.114 26.8717 135.309 27.9707 130.913 27.9707C130.744 27.9707 130.49 27.9707 130.236 27.9707V26.0262C130.406 26.0262 130.575 26.0262 130.659 26.0262C134.295 26.0262 137.423 25.0962 140.128 23.1517C142.834 21.2071 144.186 18.7553 144.186 15.7117C144.186 12.668 143.256 10.4698 141.396 9.11711C139.536 7.76438 137 7.08802 133.956 7.08802C132.35 7.08802 130.406 7.17256 128.207 7.34165V44.3726H125.333Z" fill="#B7B7BD"/>
<path d="M156.953 30.6762L151.288 44.3726H148.414L164.985 4.6362H166.591L183.246 44.3726H180.118L174.369 30.6762H156.953ZM165.661 9.20166C165.069 11.0617 164.477 12.5835 164.055 13.7671L157.967 28.3935H173.524L167.521 13.8517C166.591 11.4844 165.915 9.96256 165.661 9.20166Z" fill="#B7B7BD"/>
<path d="M74.521 53.1653C77.5646 53.1653 80.101 54.0953 82.1301 55.9553C84.1592 57.8153 85.1737 60.3517 85.1737 63.6489C85.1737 66.8617 84.2437 69.3135 82.3837 70.9198C80.5237 72.5262 78.0719 73.3717 75.1128 73.3717C73.0837 73.3717 70.9701 73.2871 68.7719 73.0335V53.3344C70.3783 53.1653 72.3228 53.1653 74.521 53.1653ZM75.1128 72.0189C77.7337 72.0189 79.7628 71.3426 81.3692 69.9053C82.9756 68.468 83.7365 66.3544 83.7365 63.5644C83.7365 60.7744 82.8065 58.4916 81.1156 56.8007C79.3401 55.1098 77.1419 54.2644 74.521 54.2644C72.661 54.2644 71.2237 54.2644 70.2937 54.3489V71.6807C71.4774 71.9344 73.0837 72.0189 75.1128 72.0189Z" fill="#B7B7BD"/>
<path d="M91.261 73.0335V53.2498H100.476V54.4335H92.6137V61.6198H99.7155V62.8035H92.6137V71.6807H100.73V72.9489H91.261V73.0335Z" fill="#B7B7BD"/>
<path d="M106.395 73.0335V53.2498H107.832V71.7653H116.878V73.0335H106.395Z" fill="#B7B7BD"/>
<path d="M45.7755 123.338V79.9662C49.6646 79.7126 52.8774 79.5435 55.4137 79.5435C59.5565 79.5435 62.9383 80.6426 65.6437 82.7562C68.3492 84.8698 69.7019 87.9135 69.7019 91.8026C69.7019 94.4235 68.941 96.8753 67.4192 99.158C65.8974 101.441 64.1219 103.216 62.2619 104.569C63.7837 106.598 65.6437 109.134 67.8419 111.924C70.0401 114.799 71.4774 116.574 72.1537 117.335C74.6055 119.956 77.3955 121.478 80.5237 121.816L80.4392 123.761C77.9874 123.761 75.9583 123.338 74.4365 122.662C72.9146 121.985 71.3928 120.886 70.0401 119.364C68.6028 117.927 65.1365 113.362 59.641 105.753C55.6674 105.753 52.0319 105.668 48.8192 105.414V123.338H45.7755ZM57.781 103.301C59.5565 103.301 61.501 102.117 63.5301 99.7498C65.5592 97.3826 66.5737 94.6771 66.5737 91.5489C66.5737 88.4207 65.5592 86.0535 63.4456 84.4471C61.3319 82.8407 58.6265 82.0798 55.1601 82.0798C53.3001 82.0798 51.1865 82.1644 48.7346 82.3335V102.963C51.9474 103.216 54.991 103.301 57.781 103.301Z" fill="#B7B7BD"/>
<path d="M85.0892 123.338V83.8553H87.8792V123.338H85.0892Z" fill="#B7B7BD"/>
<path d="M120.006 123.93C114.342 123.93 109.607 121.985 105.803 118.012C101.998 114.038 100.054 109.219 100.054 103.554C100.054 97.8898 101.998 93.0707 105.803 89.0971C109.607 85.1235 114.342 83.1789 120.006 83.1789C125.671 83.1789 130.406 85.1235 134.21 89.0971C138.015 93.0707 139.959 97.8898 139.959 103.554C139.959 109.219 138.015 114.038 134.21 118.012C130.321 121.901 125.586 123.93 120.006 123.93ZM120.006 85.7153C115.103 85.7153 111.045 87.4062 107.832 90.8726C104.619 94.3389 103.013 98.5662 103.013 103.554C103.013 108.543 104.619 112.77 107.832 116.236C111.045 119.703 115.103 121.393 120.006 121.393C124.91 121.393 128.968 119.703 132.181 116.236C135.394 112.77 137 108.627 137 103.554C137 98.5662 135.394 94.3389 132.181 90.8726C128.968 87.4062 124.91 85.7153 120.006 85.7153Z" fill="#B7B7BD"/>
<path d="M2.99889 133.292L0.879333 136.553L38.2346 160.835L40.3542 157.575L2.99889 133.292Z" fill="#A3BD31"/>
<path d="M73.5812 133.234L36.2259 157.517L38.3454 160.778L75.7007 136.495L73.5812 133.234Z" fill="#A3BD31"/>
<path d="M73.5574 133.238L71.4378 136.498L108.793 160.781L110.913 157.52L73.5574 133.238Z" fill="#A3BD31"/>
<path d="M144.251 133.224L106.895 157.507L109.015 160.767L146.37 136.484L144.251 133.224Z" fill="#A3BD31"/>
<path d="M38.2689 133.166L36.1494 136.427L73.5047 160.71L75.6242 157.449L38.2689 133.166Z" fill="#A3BD31"/>
<path d="M108.916 133.229L71.5606 157.512L73.6802 160.772L111.035 136.49L108.916 133.229Z" fill="#A3BD31"/>
<path d="M108.892 133.238L106.772 136.499L144.128 160.782L146.247 157.521L108.892 133.238Z" fill="#A3BD31"/>
<path d="M179.585 133.219L142.23 157.501L144.35 160.762L181.705 136.479L179.585 133.219Z" fill="#A3BD31"/>
</svg>
