<svg width="100" height="100" viewBox="0 0 100 100" fill="none" xmlns="http://www.w3.org/2000/svg">
<path d="M84.6877 0.312378H15.0002C6.71597 0.312378 0.000244141 7.02809 0.000244141 15.3124V84.9998C0.000244141 93.284 6.71596 99.9998 15.0002 99.9998H84.6877C92.9719 99.9998 99.6876 93.2841 99.6876 84.9998V15.3124C99.6876 7.02811 92.9719 0.312378 84.6877 0.312378Z" fill="#67C6B9"/>
<path d="M99.6877 54.3749V44.6873L84.6877 50.6249V19.6875H99.6877V16.5624H84.6877V0.312305H81.5626V16.8747H70.9376L63.125 28.1247L45.3125 15.6246V0H42.1874V15.6249L13.125 36.2498L0 15.6249V21.2499L10.6251 38.1248L0 45.6248V49.3748L12.1875 40.9373L22.8126 57.8123L0 74.0624V84.9997L13.4376 75.3122L38.1251 99.9997H42.5L15.9375 73.4372L29.6876 63.4373L54.0626 72.1874L72.1877 65V81.8749L78.1252 87.8125L66.2504 100H70.6253L82.8127 87.8125L75.6254 80.6251V64.0628L99.6877 54.3749ZM42.1877 58.4372L28.4378 53.4371L25.0004 55.937L14.3754 39.062L41.8754 19.6872V58.4372H42.1877ZM54.3752 62.4998L45.3128 59.3747V19.3749L64.0628 32.1872L73.1252 19.6872H81.8752V51.5621L54.3752 62.4998Z" fill="#435B6C"/>
<path d="M20.6252 13.4374C11.2502 13.4374 3.75024 20.9374 3.75024 30.3123C3.75024 39.6873 20.6252 64.6872 20.6252 64.6872C20.6252 64.6872 37.5002 39.3747 37.5002 30.3123C37.5002 20.9374 30.0002 13.4374 20.6252 13.4374Z" fill="#F3705B"/>
<path d="M20.6252 39.6877C25.9755 39.6877 30.3128 35.3504 30.3128 30.0001C30.3128 24.6498 25.9755 20.3125 20.6252 20.3125C15.2749 20.3125 10.9376 24.6498 10.9376 30.0001C10.9376 35.3504 15.2749 39.6877 20.6252 39.6877Z" fill="white"/>
<path d="M80.0002 36.8749C70.6252 36.8749 63.1252 44.3749 63.1252 53.7498C63.1252 63.1248 80.0002 88.1247 80.0002 88.1247C80.0002 88.1247 96.8752 62.8122 96.8752 53.7498C96.8752 44.6875 89.0626 36.8749 80.0002 36.8749Z" fill="#F3705B"/>
<path d="M80.0002 63.4373C85.3505 63.4373 89.6878 59.1 89.6878 53.7497C89.6878 48.3994 85.3505 44.0621 80.0002 44.0621C74.6499 44.0621 70.3126 48.3994 70.3126 53.7497C70.3126 59.1 74.6499 63.4373 80.0002 63.4373Z" fill="white"/>
</svg>
