<svg width="78" height="71" viewBox="0 0 78 71" fill="none" xmlns="http://www.w3.org/2000/svg">
<path d="M55.1245 26.0085C51.6774 26.0085 48.8728 28.8131 48.8728 32.2604C48.8728 35.7076 51.6774 38.5123 55.1245 38.5123C58.5717 38.5123 61.3764 35.7078 61.3764 32.2604C61.3766 28.8131 58.572 26.0085 55.1245 26.0085ZM55.1245 36.2373C52.9318 36.2373 51.1477 34.4532 51.1477 32.2603C51.1477 30.0674 52.9318 28.2833 55.1245 28.2833C57.3173 28.2833 59.1015 30.0674 59.1015 32.2603C59.1015 34.4535 57.3176 36.2373 55.1245 36.2373Z" fill="#E4E4E4"/>
<path d="M76.3471 25.6181C76.9753 25.6181 77.4845 25.109 77.4845 24.4806V14.4737C77.4845 13.8454 76.9753 13.3363 76.3471 13.3363H76.3047L10.6802 13.3364V1.13745C10.6802 0.50925 10.1709 0 9.54272 0C4.28088 0 0 4.28072 0 9.54257V61.5445C0 61.6304 0.0102909 61.7138 0.0284514 61.7945C0.0284514 61.7954 0.0286027 61.7961 0.0287541 61.797C0.0354129 61.8854 0.0455525 61.9732 0.0546327 62.061C0.0605349 62.1183 0.0647723 62.1758 0.0717338 62.2329C0.324618 64.2999 1.26654 66.209 2.77583 67.6812C4.50077 69.3634 6.77779 70.2899 9.18783 70.2899H76.3469C76.9751 70.2899 77.4844 69.7807 77.4844 69.1525V29.0307C77.4844 28.4024 76.9751 27.8933 76.3469 27.8933C75.7187 27.8933 75.2095 28.4024 75.2095 29.0307V47.7584H62.1126C65.5398 43.753 69.085 38.1797 69.085 32.2603C69.085 29.6921 68.3872 27.2843 67.1724 25.2149L75.2096 17.1777V24.4805C75.2095 25.109 75.7189 25.6181 76.3471 25.6181ZM59.1927 15.6113H64.2823L60.5119 19.3818C60.0825 19.2015 59.6425 19.0425 59.1927 18.9052V15.6113ZM52.6334 15.6115H56.9178V18.4149C56.3306 18.3392 55.7321 18.3 55.1246 18.3C54.2745 18.3 53.442 18.3766 52.6333 18.5229V15.6115H52.6334ZM31.406 15.6113H50.3584V19.1383C45.0004 21.0904 41.1643 26.2355 41.1643 32.2604C41.1643 33.0962 41.2364 33.925 41.3676 34.7435H31.4061V15.6113H31.406ZM10.6802 15.6113H22.5718V21.7284H10.6802V15.6113ZM2.27475 9.54257H2.27505C2.27505 5.92213 4.93632 2.91143 8.40527 2.36374V14.4739V22.866V29.4254V41.2173C8.40527 41.8456 8.91452 42.3548 9.54272 42.3548C10.1709 42.3548 10.6802 41.8456 10.6802 41.2173V30.563H22.5718V56.6016H4.2211C5.22885 55.5173 6.56244 54.7394 8.06491 54.428C8.07112 54.4266 8.07732 54.4251 8.08353 54.4239C8.18583 54.403 8.2895 54.385 8.39331 54.3684C8.41087 54.3656 8.42842 54.362 8.44598 54.3594C8.54011 54.3452 8.6353 54.3338 8.73049 54.3231C8.75713 54.3201 8.78361 54.3161 8.81025 54.3134C8.90196 54.3042 8.99473 54.298 9.0875 54.2924C9.11686 54.2906 9.14622 54.2874 9.17558 54.286C9.2971 54.28 9.41923 54.2768 9.54211 54.2768C10.1703 54.2768 10.6796 53.7677 10.6796 53.1393V45.7674C10.6796 45.1391 10.1703 44.63 9.54211 44.63C8.91391 44.63 8.40466 45.1391 8.40466 45.7674V52.0688C8.25423 52.0866 8.10487 52.109 7.95625 52.1337C7.94732 52.1352 7.93855 52.137 7.92962 52.1385C7.78963 52.1623 7.65055 52.1895 7.51223 52.2194C7.5033 52.2213 7.49452 52.2233 7.48559 52.2253C5.7605 52.6032 4.1704 53.4541 2.87889 54.7152C2.66626 54.9229 2.46528 55.1394 2.2746 55.3631V9.54257H2.27475ZM9.18783 68.015C6.99375 68.015 5.05027 67.0144 3.78737 65.4359H22.5718V68.015H9.18783ZM29.1311 42.4404V68.015H24.8468V64.2985C24.8468 63.6701 24.3376 63.161 23.7094 63.161H2.59029C2.49752 62.8644 2.42533 62.5622 2.37372 62.2561C2.37342 62.2547 2.37327 62.2533 2.37312 62.252C2.35042 62.1164 2.33301 61.9797 2.31849 61.8426C2.31546 61.8135 2.31198 61.7845 2.30925 61.7553C2.29579 61.612 2.28565 61.4679 2.28111 61.3231C2.28444 61.2097 2.29079 61.0968 2.29927 60.9844C2.30139 60.9558 2.30487 60.9273 2.30729 60.8987C2.3147 60.8144 2.32272 60.7303 2.33301 60.6466C2.33695 60.614 2.34194 60.5815 2.34648 60.5491C2.35723 60.4701 2.36873 60.3914 2.3822 60.3132C2.3881 60.2781 2.39491 60.2428 2.40142 60.2077C2.41504 60.1338 2.42957 60.0603 2.44561 59.9872C2.45424 59.9477 2.46316 59.9084 2.4724 59.869C2.48783 59.8032 2.50433 59.7378 2.52173 59.6726C2.53157 59.6356 2.54156 59.599 2.55185 59.5624C2.55624 59.5471 2.56047 59.5318 2.56486 59.5165C2.57863 59.4689 2.59301 59.4218 2.60784 59.3744C2.6198 59.3361 2.63206 59.2982 2.64477 59.26C2.65778 59.2208 2.6708 59.1818 2.68457 59.1429C2.68941 59.1288 2.69456 59.1149 2.69955 59.1007C2.71771 59.0497 2.73678 58.999 2.75615 58.9484C2.76538 58.9244 2.77492 58.9005 2.78445 58.8765H23.7092C24.3374 58.8765 24.8467 58.3674 24.8467 57.7391V29.4254C24.8467 28.7971 24.3374 28.288 23.7092 28.288H10.6802V24.0036H23.7092C24.3374 24.0036 24.8467 23.4945 24.8467 22.8661V15.6115H29.1309V35.881C29.1309 36.5093 29.6402 37.0184 30.2684 37.0184H41.8873C42.3254 38.5009 42.9386 39.9367 43.6615 41.3028H30.2682C29.6403 41.303 29.1311 41.8121 29.1311 42.4404ZM50.3585 68.015H45.1129L50.3585 62.7694V68.015ZM59.1927 68.015V56.5926H75.2095V68.0149H59.1927V68.015ZM75.2096 50.0333V54.3175H58.0552C57.427 54.3175 56.9178 54.8266 56.9178 55.455V68.0149H52.6334V60.0232C52.6334 59.5632 52.3563 59.1483 51.9312 58.9723C51.5064 58.7962 51.017 58.8935 50.6916 59.2187L41.8954 68.0149H35.8365L41.5027 62.3488C41.9469 61.9045 41.9469 61.1843 41.5027 60.7401C41.0585 60.2961 40.3382 60.2961 39.894 60.7401L32.6191 68.015H31.406V43.5779H44.9991C46.6946 46.2039 48.6885 48.4838 50.4071 50.227L43.1302 57.5038C42.686 57.9481 42.686 58.6683 43.1302 59.1125C43.3522 59.3345 43.6434 59.4456 43.9346 59.4456C44.2257 59.4456 44.5168 59.3345 44.7389 59.1125L52.0408 51.8108C53.3548 53.0274 54.29 53.76 54.4284 53.867C54.6333 54.0256 54.879 54.1047 55.1246 54.1047C55.3702 54.1047 55.6158 54.0254 55.8207 53.867C56.0173 53.7149 57.8179 52.3041 60.0321 50.0333H75.2096ZM55.1246 51.4945C52.5102 49.274 43.4392 40.9431 43.4392 32.2604C43.4392 25.8172 48.6812 20.5751 55.1246 20.5751C61.5679 20.5751 66.8099 25.8172 66.8099 32.2604C66.8101 40.9431 57.7391 49.2743 55.1246 51.4945ZM65.8435 23.3265C64.9231 22.224 63.8366 21.2651 62.6223 20.4888L67.4997 15.6112H73.5588L65.8435 23.3265Z" fill="#E4E4E4"/>
</svg>
