<svg width="50" height="50" viewBox="0 0 50 50" fill="none" xmlns="http://www.w3.org/2000/svg">
<path d="M48.0469 23.0469H1.95312C0.874414 23.0469 0 23.9213 0 25C0 26.0787 0.874414 26.9531 1.95312 26.9531H48.0469C49.1256 26.9531 50 26.0787 50 25C50 23.9213 49.1256 23.0469 48.0469 23.0469Z" fill="#E8E8E8"/>
<path d="M48.0469 7.42188H1.95312C0.874414 7.42188 0 8.29629 0 9.375C0 10.4537 0.874414 11.3281 1.95312 11.3281H48.0469C49.1256 11.3281 50 10.4537 50 9.375C50 8.29629 49.1256 7.42188 48.0469 7.42188Z" fill="#E8E8E8"/>
<path d="M48.0469 38.6719H1.95312C0.874414 38.6719 0 39.5463 0 40.625C0 41.7037 0.874414 42.5781 1.95312 42.5781H48.0469C49.1256 42.5781 50 41.7037 50 40.625C50 39.5463 49.1256 38.6719 48.0469 38.6719Z" fill="#E8E8E8"/>
</svg>
