<svg width="78" height="78" viewBox="0 0 78 78" fill="none" xmlns="http://www.w3.org/2000/svg">
<path d="M76.3868 36.0904L41.3922 1.09573C39.931 -0.36527 37.5535 -0.36527 36.0922 1.09589L27.9848 9.20329C27.5422 9.64595 27.5422 10.3637 27.9848 10.8062C28.4276 11.2489 29.1453 11.2489 29.5879 10.8062L37.6952 2.69884C38.2725 2.12149 39.212 2.12164 39.7891 2.69884L74.7837 37.6935C75.0634 37.9731 75.2173 38.3447 75.2173 38.7403C75.2173 39.1359 75.0631 39.5074 74.7836 39.7872L50.4249 64.146C49.9822 64.5887 49.9822 65.3065 50.4249 65.7492C50.6463 65.9704 50.9365 66.0812 51.2265 66.0812C51.5165 66.0812 51.8067 65.9704 52.0281 65.7492L76.3868 41.3903C77.0948 40.6824 77.4846 39.7412 77.4846 38.7403C77.4845 37.7393 77.0945 36.7982 76.3868 36.0904Z" fill="#E4E4E4"/>
<path d="M48.8079 67.3661C48.3649 66.9233 47.6473 66.9236 47.2048 67.3661L39.7893 74.7817C39.2119 75.3591 38.2724 75.3589 37.6952 74.7817L2.70075 39.7871C2.42108 39.5073 2.26717 39.1356 2.26717 38.7402C2.26717 38.3446 2.42139 37.973 2.70091 37.6932L26.368 14.0261C26.8106 13.5835 26.8106 12.8657 26.368 12.4232C25.9252 11.9805 25.2075 11.9805 24.7647 12.4232L1.0978 36.0903C0.389995 36.7982 0 37.7392 0 38.7403C0 39.7414 0.389994 40.6824 1.09764 41.3902L36.0923 76.385C36.8229 77.1155 37.7826 77.4808 38.7422 77.4808C39.702 77.4808 40.6614 77.1155 41.3922 76.385L48.8079 68.9692C49.2505 68.5265 49.2505 67.8088 48.8079 67.3661Z" fill="#E4E4E4"/>
<path d="M58.1029 29.44L46.1243 18.9107C45.7898 18.6168 45.314 18.5459 44.9087 18.7294C44.5032 18.9128 44.2426 19.3171 44.2426 19.7621V25.0715L43.0198 25.0724C43.0152 25.0722 43.0045 25.0719 43.0025 25.0719C38.0875 24.9643 33.44 26.7925 29.9269 30.2254C26.4098 33.6618 24.4731 38.2624 24.4731 43.1797V55.4882C24.4731 56.1143 24.9806 56.6217 25.6067 56.6217H32.9108C33.537 56.6217 34.0443 56.1141 34.0443 55.4882V50.1592C34.0443 49.5331 33.5368 49.0257 32.9108 49.0257C32.2847 49.0257 31.7773 49.5332 31.7773 50.1592V54.3547H26.7403V43.1797C26.7403 38.8779 28.4347 34.8531 31.5114 31.8468C34.5846 28.8434 38.6495 27.2414 42.9566 27.3385L42.9898 27.3393C42.9958 27.3393 43.0011 27.3388 43.0076 27.3394L45.377 27.3376C46.0028 27.3372 46.5096 26.8297 46.5096 26.2041V22.2677L55.6376 30.2912L46.5096 38.3148V33.5046C46.5096 33.2039 46.39 32.9153 46.1772 32.7026C45.9648 32.4903 45.6765 32.3711 45.3761 32.3711C45.3758 32.3711 45.3753 32.3711 45.375 32.3711L42.8071 32.3733C39.8842 32.3136 37.122 33.4065 35.0316 35.4489C32.933 37.4997 31.7773 40.2451 31.7773 43.1792V45.6245C31.7773 46.2506 32.2847 46.758 32.9108 46.758C33.5368 46.758 34.0443 46.2504 34.0443 45.6245V43.1792C34.0443 40.8604 34.9576 38.691 36.6161 37.0704C38.2705 35.4538 40.4579 34.5916 42.772 34.6399C42.7803 34.6401 42.7853 34.6397 42.7971 34.6402L44.2426 34.639V40.8203C44.2426 41.2656 44.5032 41.6696 44.9087 41.8531C45.3145 42.0365 45.79 41.9658 46.1243 41.6718L58.1029 31.1425C58.3477 30.9273 58.4882 30.6171 58.4882 30.2911C58.4882 29.9653 58.3477 29.6552 58.1029 29.44Z" fill="#E4E4E4"/>
</svg>
