<svg width="100" height="100" viewBox="0 0 100 100" fill="none" xmlns="http://www.w3.org/2000/svg">
<rect width="100" height="100" rx="15" fill="#435B6C"/>
<path d="M72.8073 21.0062C60.3643 8.5632 40.264 8.5632 27.9806 21.0062C15.5376 33.4492 15.5376 53.3899 27.9806 65.8329L50.3141 88.326L72.6477 65.9925C85.0907 53.5495 85.0907 33.4492 72.8073 21.0062Z" fill="#F3705B"/>
<path d="M50.3142 65.9925C37.8712 65.9925 27.821 55.9424 27.821 43.4994C27.821 31.0563 37.8712 21.0062 50.3142 21.0062C62.7572 21.0062 72.8073 31.0563 72.8073 43.4994C72.8073 55.9424 62.7572 65.9925 50.3142 65.9925Z" fill="white"/>
<path d="M32.2877 46.8494L35.1591 55.9423H58.1308L69.6167 46.8494H32.2877Z" fill="#435B6C"/>
<path d="M47.6021 26.9087C46.964 26.9087 46.4854 27.3873 46.4854 28.0254V46.8494H48.7187V28.0253C48.7189 27.3873 48.2403 26.9087 47.6021 26.9087Z" fill="#E8EAE9"/>
<path d="M48.7188 28.0253V43.9779H62.7571L48.7188 28.0253Z" fill="#67C6B9"/>
<path d="M37.233 43.978H46.6449V30.2588L37.233 43.978Z" fill="#CFD7E1"/>
</svg>
